<svg xmlns="http://www.w3.org/2000/svg" xmlns:xlink="http://www.w3.org/1999/xlink" viewBox="0,0,256,256" width="100px" height="100px" fill-rule="nonzero"><g fill="#fcfcfc" fill-rule="nonzero" stroke="none" stroke-width="1" stroke-linecap="butt" stroke-linejoin="miter" stroke-miterlimit="10" stroke-dasharray="" stroke-dashoffset="0" font-family="none" font-weight="none" font-size="none" text-anchor="none" style="mix-blend-mode: normal"><g transform="scale(2.56,2.56)"><path d="M17.26563,15.96094c-4.006,0 -7.26562,3.31467 -7.26562,7.38867l0.09375,54.65039c0,3.49907 0.44561,6.73695 3.53906,6.97656c0.04033,0.00493 0.07551,0.02344 0.11719,0.02344h71.16797c2.251,0 4.08203,-1.83103 4.08203,-4.08203v-43.91797c0,-0.552 -0.447,-1 -1,-1h-3.99805v-5.57812c0,-1.908 -1.55489,-3.46094 -3.46289,-3.46094h-27.07617c-0.806,0 -1.46094,-0.65494 -1.46094,-1.46094v-2.30469c0,-3.989 -3.25962,-7.23437 -7.26562,-7.23437zM17.26563,17.96094h27.46875c2.904,0 5.26563,2.34838 5.26563,5.23437v2.30469c0,1.908 1.55294,3.46094 3.46094,3.46094h27.07812c0.806,0 1.46289,0.65494 1.46289,1.46094v5.57813h-66.00195c-0.553,0 -1,0.448 -1,1v37.75l0.00391,1.28906c0.011,2.944 0.02542,5.98816 -0.76758,6.78516c-0.08525,0.08525 -0.20964,0.15821 -0.44727,0.16797c-0.74452,-0.03508 -1.69531,-0.43069 -1.69531,-4.99414l-0.09375,-48.17383v-6.47461c0,-2.971 2.36262,-5.38867 5.26563,-5.38867zM20.34961,20.96094c-2.95,0 -5.34961,2.48792 -5.34961,5.54492v4.95508c0,0.276 0.224,0.5 0.5,0.5c0.276,0 0.5,-0.224 0.5,-0.5v-4.95508c0,-2.505 1.95161,-4.54492 4.34961,-4.54492h18.15039c0.276,0 0.5,-0.224 0.5,-0.5c0,-0.276 -0.224,-0.5 -0.5,-0.5zM41.69336,21.00195c-0.276,0 -0.5,0.224 -0.5,0.5c0,0.276 0.224,0.5 0.5,0.5c2.398,0 4.34961,2.03892 4.34961,4.54492c0,0.276 0.224,0.5 0.5,0.5c0.276,0 0.5,-0.224 0.5,-0.5c0,-3.058 -2.40061,-5.54492 -5.34961,-5.54492zM17,38h70v42.91797c0,1.148 -0.93403,2.08203 -2.08203,2.08203h-68.49805c0.606,-1.574 0.59698,-3.95275 0.58398,-6.96875zM25.5,42c-0.276,0 -0.5,0.224 -0.5,0.5v10c0,0.276 0.224,0.5 0.5,0.5h24c0.276,0 0.5,-0.224 0.5,-0.5v-10c0,-0.276 -0.224,-0.5 -0.5,-0.5zM26,43h23v9h-23z"></path></g></g></svg>